<!-- Generated by IcoMoon.io -->
<svg fill='white' version="1.1" xmlns="http://www.w3.org/2000/svg" width="32" height="32" viewBox="0 0 32 32">
<title>anyDev_20__0</title>
<path d="M6.222 24h-4.444q-0.889 0-1.333-0.444t-0.444-1.333v-19.111q0-0.444 0.444-0.889t1.333-0.444h28.444q0.889 0 1.333 0.444t0.444 0.889v19.111q0 0.889-0.444 1.333t-1.333 0.444h-4.444v1.778h3.111q0.444 0 0.889 0.444t0.444 1.111-0.444 1.111-0.889 0.444h-3.111q0 0.444-0.667 0.889t-1.111 0.444h-16q-0.444 0-1.111-0.444t-0.667-0.889h-3.111q-0.444 0-0.889-0.444t-0.444-1.111 0.444-1.111 0.889-0.444h3.111v-1.778zM6.222 20.889v-4.889q0-0.444 0.667-1.111t1.111-0.667h4.889v-3.111q0-0.444 0.444-0.889t0.889-0.444h9.778q0.444 0 1.111 0.444t0.667 0.889v9.778h3.111v-16h-25.778v16h3.111zM16 27.111h6.222v-14.222h-6.222v14.222zM9.778 17.778v9.333h3.111v-9.333h-3.111zM17.778 24h3.111v1.778h-3.111v-1.778z"></path>
</svg>
