<!-- Generated by IcoMoon.io -->
<svg fill='white' version="1.1" xmlns="http://www.w3.org/2000/svg" width="32" height="32" viewBox="0 0 32 32">
<title>smartTvPromo_20__0</title>
<path d="M3.111 4.889q-0.889 1.333-1.111 2.667t-0.222 4.889v6.667q0.444 1.778 1.556 2.889t2.444 1.333 4.889 0.667h10.667q3.556-0.444 4.889-0.667t2.444-1.333 1.556-2.889v-6.667q0-3.556-0.222-4.889t-1.333-2.444-2.444-1.333-4.889-0.667h-10.667q-3.556 0.444-4.889 0.667t-2.667 1.111zM8.889 27.111q-0.444 0-0.667 0.222t-0.222 0.667 0.444 0.444l0.444 0.444h14.222l0.444-0.444q0.444 0 0.444-0.444t-0.444-0.444l-0.444-0.444h-14.222z"></path>
</svg>
