<svg xmlns="http://www.w3.org/2000/svg" height="20" viewBox="0 96 960 960" width="20"><path d="M735.677 880.614q-107.062-10-205.278-58.603-98.215-48.603-174.518-125.096T230.309 522.519q-49.269-97.903-58.269-205.077-2-20.51 12.055-35.84 14.055-15.331 35.137-15.331h98.806q18.538 0 31.058 10.173 12.519 10.173 17.596 28.327l20.923 81.46q2.384 11.487-1.25 23.744-3.635 12.256-12.937 20.788l-89.852 88.275q47.385 84.462 109.443 146.328 62.058 61.865 145.789 107.481l95.209-92.923q10.253-10.269 18.478-11.827 8.225-1.558 18.505.827l77.599 16.789q18.207 4.403 28.784 18.072 10.577 13.669 10.577 32.408v97.229q0 26.653-18.795 37.423-18.795 10.769-33.488 9.769ZM261.423 472.309l75.385-72.308q1.731-1.539 2.308-4.231.577-2.693 0-5.001l-18.045-70.384q-.769-3.077-2.692-4.616-1.924-1.538-5.001-1.538H227.5q-2.5 0-3.942 1.538-1.443 1.539-1.443 3.847 2.269 37.192 12.923 75.904 10.654 38.711 26.385 76.789Zm325.999 322.114q35.177 15.782 74.384 23.968 39.206 8.186 72.809 12.032 2.308 0 3.846-1.539 1.539-1.538 1.539-3.846v-86.154q0-3.077-1.539-5-1.538-1.923-4.615-2.692l-63.384-14.577q-2.308-.577-4.039 0-1.731.577-3.654 2.308l-75.347 75.5ZM261.423 472.309Zm325.999 322.114Z"/></svg>