<!-- Generated by IcoMoon.io -->
<svg fill='white' version="1.1" xmlns="http://www.w3.org/2000/svg" width="32" height="32" viewBox="0 0 32 32">
<path d="M2.222 0.444q0.444-0.444 2.222-0.444l4 0.444q4.444 0.444 8 0.444t7.111-0.444l4-0.444q1.778 0 2.444 0.667t0.667 2v3.111q-0.444 7.111-2 12t-3.778 8-4.667 4.667-4.222 1.556-4.222-1.556-4.667-4.667-3.778-8-2-12v-3.556q0-0.889 0.889-1.778zM28 5.778v-3.111l-4 0.444q-4 0.444-7.556 0.444t-8.444-0.444l-4-0.444v3.111q0.444 6.667 1.778 11.333t3.333 7.333 3.778 3.778 3.111 1.111 3.111-1.111 3.778-3.778 3.333-7.333 1.778-11.333zM28.444 2.667v0 0zM13.778 9.778q0 0.444 0.222 0.889t-0.222 0.889q-1.778 2.222-5.333 1.778-0.444 0-0.889-0.444t-0.222-1.111 0.667-0.889 0.889-0.222q1.778 0 2.444-0.667t1.333-0.667 1.111 0.444zM12.889 21.778q1.778-1.333 3.556-1.111t2.444 0.889 1.333 0.444 0.889-0.667 0.222-0.889-0.667-1.111-2.222-1.111-3.556-0.222-3.778 1.556q-0.444 0.444-0.444 0.889t0.222 0.889 0.889 0.667 1.111-0.222zM18.222 11.556q-0.444-0.444-0.222-0.889l0.444-0.889t0.889-0.444 1.333 0.667 2.444 0.667q0.444 0 0.889 0.222t0.667 0.889-0.222 1.111-0.889 0.444q-3.556 0.444-5.333-1.778z"></path>
</svg>
