<svg xmlns="http://www.w3.org/2000/svg" width="32" height="32" viewBox="0 0 32 32">
    <g fill-rule="nonzero">
        <path fill="#645ba3" d="M27 23v-2h1a2 2 0 0 0 2-2V7a2 2 0 0 0-2-2H8a2 2 0 0 0-2 2v3H4V7a4 4 0 0 1 4-4h20a4 4 0 0 1 4 4v12a4 4 0 0 1-4 4h-1zm-6 1a2 2 0 1 1 0-4 2 2 0 0 1 0 4z"/>
        <path fill="#ec174f" d="M2 17v8a2 2 0 0 0 2 2h20a2 2 0 0 0 2-2V13a2 2 0 0 0-2-2H4a2 2 0 0 0-2 2v2h19a1 1 0 0 1 0 2H2zm2-8h20a4 4 0 0 1 4 4v12a4 4 0 0 1-4 4H4a4 4 0 0 1-4-4V13a4 4 0 0 1 4-4zm14 15a2 2 0 1 1 0-4 2 2 0 0 1 0 4z"/>
    </g>
</svg>
