<svg xmlns="http://www.w3.org/2000/svg" width="32" height="32" viewBox="0 0 32 32"><path fill="#ea0042" d="M18.6667 32H20.3333L23 30L25.6667 32H26C27.1046 32 28 31.1046 28 30V2C28 0.89543 27.1046 0 26 0H25.6667L23 2L20.3333 0H18.6667L16 2L13.3333 0H11.6667L9 2L6.33333 0H6C4.89543 0 4 0.89543 4 2V30C4 31.1046 4.89543 32 6 32H6.33333L9 30L11.6667 32H13.3333L16 30L18.6667 32ZM26 29.75L23 27.5L19.5083 30.1312L16 27.5L12.5148 30.1139L9 27.5L6 29.75V2.25L9 4.5L12.5035 1.8724L16 4.5L19.5026 1.87306L23 4.5L26 2.25V29.75Z"/><path fill="#7e798f" d="M11 17H15C15.5523 17 16 17.4477 16 18C16 18.5523 15.5523 19 15 19H11C10.4477 19 10 18.5523 10 18C10 17.4477 10.4477 17 11 17ZM11 21H21C21.5523 21 22 21.4477 22 22C22 22.5523 21.5523 23 21 23H11C10.4477 23 10 22.5523 10 22C10 21.4477 10.4477 21 11 21Z"/></svg>