<svg xmlns="http://www.w3.org/2000/svg" width="32" height="32" viewBox="0 0 32 32">
    <g fill-rule="nonzero">
        <path fill="#ec174f" d="M13.443 25.669l.137-.08a5.2 5.2 0 0 1 4.84 0l.137.08 6.687 4.218c.16.074.332.112.506.112.683 0 1.25-.577 1.25-1.306V3.307C27 2.577 26.433 2 25.75 2H6.25C5.567 2 5 2.577 5 3.307v25.386c0 .213.05.423.146.611.31.613 1.017.858 1.61.583l6.687-4.218zM6.25 0h19.5C27.545 0 29 1.48 29 3.307v25.386c0 1.826-1.455 3.306-3.25 3.306-.518 0-1.03-.126-1.49-.368l-6.77-4.27a3.2 3.2 0 0 0-2.98 0l-6.77 4.27c-1.595.838-3.555.2-4.378-1.422A3.353 3.353 0 0 1 3 28.693V3.307C3 1.48 4.455 0 6.25 0z"/>
        <path fill="#645ba3" d="M23 5.003c.5 0 1-.113 1 1.077v11.843c0 .595-.448 1.077-1 1.077s-1-.482-1-1.077V6.08c0-1.077.5-1.077 1-1.077z"/>
    </g>
</svg>
