<svg xmlns="http://www.w3.org/2000/svg" width="32" height="32" viewBox="0 0 32 32">
    <g fill-rule="evenodd">
        <path fill="#ec174f" fill-rule="nonzero" d="M5.878 15.954a1 1 0 0 1 1.658 1.119l-2.237 3.316a.997.997 0 0 1-1.388.27L.595 18.422a1 1 0 0 1 1.118-1.658l1.463.986A14.468 14.468 0 0 1 6.074 6.573c4.93-6.31 14.042-7.429 20.353-2.499 6.31 4.93 7.429 14.042 2.499 20.353-4.527 5.794-12.579 7.21-18.75 3.588-.551-.323-.516-1.08-.176-1.515.34-.435.775-.447 1.283-.154 5.308 3.05 12.188 1.813 16.067-3.15C31.6 17.755 30.635 9.9 25.195 5.65 19.755 1.4 11.9 2.365 7.65 7.805a12.467 12.467 0 0 0-2.547 9.298l.775-1.149z"/>
        <path fill="#645ba3" d="M22.242 12.553a1 1 0 0 1 1.089 1.677l-2.66 1.727a3 3 0 1 1-5.419-.955L12.259 10.7c-.382-.507-.334-1.188.107-1.52.44-.333 1.108-.19 1.49.317l2.995 4.3c.43-.135.898-.176 1.374-.101.512.081.974.288 1.358.584l2.66-1.727zm-4.644 5.094a1 1 0 1 0 .313-1.976 1 1 0 0 0-.313 1.976z"/>
    </g>
</svg>
