<svg xmlns="http://www.w3.org/2000/svg" width="32" height="32" viewBox="0 0 32 32">
    <g fill-rule="nonzero">
        <path fill="#645ba3" d="M2 6h21a2 2 0 0 1 2 2v2a1 1 0 0 1-2 0V8H2V6zm21 13a1 1 0 1 1 0 2 1 1 0 0 1 0-2z"/>
        <path fill="#ec174f" d="M21 24a3 3 0 0 1-3-3v-2a3 3 0 0 1 3-3h8v-2a2 2 0 0 0-2-2H6a4.978 4.978 0 0 1-3-1v15a2 2 0 0 0 2 2h22a2 2 0 0 0 2-2v-2h-8zm10-10v12a4 4 0 0 1-4 4H5a4 4 0 0 1-4-4V7a5 5 0 0 1 5-5h19a4 4 0 0 1 4 4v4.535c1.196.692 2 1.984 2 3.465zm-4-8a2 2 0 0 0-2-2H6a3 3 0 1 0 0 6h21V6zm2 12h-8a1 1 0 0 0-1 1v2a1 1 0 0 0 1 1h8v-4z"/>
    </g>
</svg>
