<svg xmlns="http://www.w3.org/2000/svg" width="32" height="32" viewBox="0 0 32 32">
    <g fill-rule="evenodd">
        <path fill="#645ba3" fill-rule="nonzero" d="M12.736 6.544a1 1 0 0 1 .654 1.89 8.019 8.019 0 0 0-4.927 4.879 1 1 0 0 1-1.884-.67 10.019 10.019 0 0 1 6.157-6.1zm6.566 18.936a1 1 0 0 1-.653-1.89 8.019 8.019 0 0 0 4.927-4.88 1 1 0 0 1 1.884.67 10.019 10.019 0 0 1-6.158 6.1z"/>
        <path fill="#ec174f" d="M24.736 5.055c.76.606 1.446 1.284 2.054 2.02l.074-.032a2.5 2.5 0 0 1 3.278 1.325l1.172 2.761a2.5 2.5 0 0 1-1.324 3.278l-.075.032c.108.948.118 1.912.026 2.88l.074.03a2.5 2.5 0 0 1 1.382 3.254l-1.124 2.781a2.5 2.5 0 0 1-3.254 1.382l-.074-.03a13.913 13.913 0 0 1-2.02 2.054l.032.074a2.5 2.5 0 0 1-1.325 3.278l-2.761 1.172a2.5 2.5 0 0 1-3.278-1.324l-.032-.075c-.948.108-1.912.118-2.88.026l-.03.074a2.5 2.5 0 0 1-3.254 1.382l-2.781-1.124a2.5 2.5 0 0 1-1.382-3.254l.03-.074a13.913 13.913 0 0 1-2.054-2.02l-.074.032a2.5 2.5 0 0 1-3.278-1.325L.686 20.871a2.5 2.5 0 0 1 1.324-3.278l.075-.032a13.913 13.913 0 0 1-.026-2.88l-.074-.03a2.5 2.5 0 0 1-1.382-3.254l1.124-2.781a2.5 2.5 0 0 1 3.254-1.382l.074.03a13.913 13.913 0 0 1 2.02-2.054l-.032-.074a2.5 2.5 0 0 1 1.325-3.278L11.129.686a2.5 2.5 0 0 1 3.278 1.324l.032.075a13.913 13.913 0 0 1 2.88-.026l.03-.074A2.5 2.5 0 0 1 20.602.603l2.781 1.124a2.5 2.5 0 0 1 1.382 3.254l-.03.074zm-2.449.722l.625-1.545a.5.5 0 0 0-.277-.65l-2.781-1.124a.5.5 0 0 0-.651.276l-.624 1.544a11.936 11.936 0 0 0-5.362.048l-.65-1.534a.5.5 0 0 0-.656-.265L9.149 3.699a.5.5 0 0 0-.265.656l.651 1.534a11.936 11.936 0 0 0-3.758 3.824l-1.545-.625a.5.5 0 0 0-.65.277l-1.124 2.781a.5.5 0 0 0 .276.651l1.544.624c-.399 1.805-.365 3.635.048 5.362l-1.534.65a.5.5 0 0 0-.265.656l1.172 2.762a.5.5 0 0 0 .656.265l1.534-.651a11.936 11.936 0 0 0 3.824 3.758l-.625 1.545a.5.5 0 0 0 .277.65l2.781 1.124a.5.5 0 0 0 .651-.276l.624-1.544c1.805.399 3.635.365 5.362-.048l.65 1.534a.5.5 0 0 0 .656.265l2.762-1.172a.5.5 0 0 0 .265-.656l-.651-1.534a11.936 11.936 0 0 0 3.758-3.824l1.545.625a.5.5 0 0 0 .65-.277l1.124-2.781a.5.5 0 0 0-.276-.651l-1.544-.624c.399-1.805.365-3.635-.048-5.362l1.534-.65a.5.5 0 0 0 .265-.656l-1.172-2.762a.5.5 0 0 0-.656-.265l-1.534.651a11.936 11.936 0 0 0-3.824-3.758zM16 22a6 6 0 1 1 0-12 6 6 0 0 1 0 12zm0-2a4 4 0 1 0 0-8 4 4 0 0 0 0 8z"/>
    </g>
</svg>
