<svg xmlns="http://www.w3.org/2000/svg" width="32" height="32" viewBox="0 0 32 32">
    <g fill-rule="nonzero">
        <path fill="#ec174f" d="M13.174 26.991a3.001 3.001 0 1 1-.006 2.001c-4.143-.15-7.074-2.448-7.918-6.46A3.5 3.5 0 0 1 0 19.5v-8a3.5 3.5 0 0 1 5.327-2.986C6.712 3.595 10.955 0 16 0s9.288 3.595 10.673 8.514A3.5 3.5 0 0 1 32 11.5v8a3.5 3.5 0 0 1-7 0v-8c0-.258.028-.509.08-.75C24.517 5.803 20.65 2 16 2s-8.516 3.804-9.08 8.75c.052.241.08.492.08.75v8c0 .11-.005.219-.015.326.01.057.015.115.015.174 0 4.444 2.322 6.828 6.174 6.991zM2 11.5v8a1.5 1.5 0 0 0 3 0v-8a1.5 1.5 0 0 0-3 0zM28.5 10a1.5 1.5 0 0 0-1.5 1.5v8a1.5 1.5 0 0 0 3 0v-8a1.5 1.5 0 0 0-1.5-1.5zM16 27a1 1 0 1 0 0 2 1 1 0 0 0 0-2z"/>
        <path fill="#645ba3" d="M10.628 18.49c.913 1.623 3.059 3.01 5.372 3.01 2.313 0 4.459-1.387 5.372-3.01a1 1 0 1 0-1.744-.98c-.573 1.02-2.074 1.99-3.628 1.99-1.554 0-3.055-.97-3.628-1.99a1 1 0 1 0-1.744.98z"/>
    </g>
</svg>
