<!-- Generated by IcoMoon.io -->
<svg version="1.1" xmlns="http://www.w3.org/2000/svg" fill='white' width="32" height="32" viewBox="0 0 32 32">
<title>avatar_16</title>
<path d="M15.888 20.012q-2.717 0-5.051-1.375-2.27-1.343-3.58-3.58-1.375-2.334-1.375-5.051t1.375-5.051q1.311-2.27 3.58-3.58 2.334-1.375 5.051-1.375t5.051 1.375q2.238 1.311 3.58 3.58 1.375 2.334 1.375 5.051t-1.375 5.051q-1.343 2.238-3.58 3.58-2.334 1.375-5.051 1.375zM15.888 15.984q1.63 0 3.005-0.799t2.174-2.174 0.799-3.005-0.799-3.005-2.174-2.19-3.005-0.815-3.005 0.815-2.19 2.19-0.815 3.005 0.815 3.005 2.19 2.174 3.005 0.799zM27.397 28.739q0.575 0.575 0.559 1.375t-0.607 1.343-1.423 0.527-1.407-0.591q-2.27-2.238-5.403-3.101-3.037-0.831-6.074-0.096-3.165 0.735-5.498 2.909l-0.096 0.096q-0.575 0.575-1.407 0.559t-1.423-0.575-0.575-1.359 0.591-1.375l0.128-0.128q3.133-2.909 7.321-3.9 4.092-0.959 8.12 0.16 4.156 1.119 7.193 4.156z"></path>
</svg>
