<!-- Generated by IcoMoon.io -->
<svg version="1.1" xmlns="http://www.w3.org/2000/svg" width="32" height="32" viewBox="0 0 32 32">
<title>player_settings_20__0</title>
<path fill='white' d="M20.444 0.889q1.333 0 2.667 0.667t1.778 2.444l0.889 2.667q0 0.444 0.444 1.111t0.889 0.667l2.667 1.333q1.333 0.889 1.778 2.667l0.444 2.222q0 1.778-0.889 3.111l-2.222 1.778q-0.444 0.444-0.444 1.333l-0.444 0.889 0.444 2.667q-0.444 2.222-1.333 3.111l-1.778 1.778q-1.333 0.889-3.556 0.444l-2.222-0.889h-1.556t-1.111 0.444l-2.222 1.778q-1.778 0.889-3.111 0l-2.222-0.444q-1.778-0.889-2.222-2.667l-0.889-2.667q0-0.444-0.444-1.111t-0.889-0.667l-2.667-1.333q-1.333-0.889-1.778-2.667l-0.444-2.222q0-1.778 0.889-3.111l2.222-1.778q0.444-0.444 0.667-1.111t0.222-1.556l-0.444-2.222q0.444-2.222 1.333-3.111l1.778-1.778q1.333-0.889 3.556-0.444l2.222 0.889h1.333l1.333-0.444 2.222-1.778q1.778-0.889 3.111 0zM18.667 4q-0.444 0-0.889 0.444l-0.444 0.444q-1.333 0.889-2.667 1.111t-2.667 0.222l-2.222-0.889h-0.889l-1.778 1.333v3.111q0 1.333-0.444 2.667t-1.333 2.222l-1.778 1.333-0.444 0.889 0.444 2.222 0.444 0.444 1.778 0.889q1.778 0.444 2.667 1.556t0.889 2.444l0.444 2.222q0.444 0.889 0.889 0.889l1.778 0.889 0.889-0.444 1.333-0.889q1.333-0.889 2.667-1.111t2.667-0.222l2.222 0.889h0.889l1.778-1.333v-3.111q0-1.333 0.444-2.667t1.333-2.222l1.778-1.333 0.444-0.889-0.444-2.222-0.444-0.444-1.778-0.889q-1.778-0.444-2.667-1.556t-0.889-2.444l-0.444-2.222q-0.444-0.889-0.889-0.889l-1.778-0.889zM16 9.778q1.778 0 3.333 0.667t2.222 2.222 0.667 3.333-0.667 3.333-2.222 2.222-3.333 0.667-3.333-0.667-2.222-2.222-0.667-3.333 0.667-3.333 2.222-2.222 3.333-0.667zM16 12.889q-1.333 0-2.222 0.889t-0.889 2.222 0.889 2.222 2.222 0.889 2.222-0.889 0.889-2.222-0.889-2.222-2.222-0.889z"></path>
</svg>
