<!-- Generated by IcoMoon.io -->
<svg version="1.1" xmlns="http://www.w3.org/2000/svg" fill="white" width="32" height="32" viewBox="0 0 32 32">
<title>player_subtitles_20__0</title>
<path d="M16 3.111q-3.111 0-6.222 0.444h-4.444q-2.222 0.444-3.333 1.778t-1.556 3.111l-0.444 7.556 0.444 7.556q0.444 1.778 1.556 3.111t3.333 1.778h4l6.667 0.444 6.222-0.444h4.444q2.222-0.444 3.333-1.778t1.556-3.111l0.444-7.556-0.444-7.556q-0.444-1.778-1.556-3.111t-3.333-1.778h-4zM9.778 6.667q3.111-0.444 6.222-0.444l6.222 0.444h4q0.889 0.444 1.556 0.889t0.667 1.778l0.444 6.667-0.444 6.667q0 1.333-0.667 1.778t-1.556 0.889h-4l-6.222 0.444-6.222-0.444h-4q-0.889-0.444-1.556-0.889t-0.667-1.778l-0.444-6.667 0.444-6.667q0-1.333 0.667-1.778t1.556-0.889h4zM6.222 14.222q0-0.444 0.667-0.889t1.111-0.444h8q0.444 0 1.111 0.444t0.667 1.111-0.667 1.111-1.111 0.444h-8q-0.444 0-1.111-0.444t-0.667-1.333zM16 19.111q-0.444 0-1.111 0.444t-0.667 1.111 0.667 1.111 1.111 0.444h8q0.444 0 1.111-0.444t0.667-1.111-0.667-1.111-1.111-0.444h-8zM6.222 20.889q0-0.889 0.667-1.333t1.111-0.444h1.778q0.444 0 0.889 0.444t0.444 1.111-0.444 1.111-0.889 0.444h-1.778q-0.444 0-1.111-0.444t-0.667-0.889zM20.889 14.222q0-0.444 0.444-0.889t0.889-0.444h1.778q0.444 0 1.111 0.444t0.667 1.111-0.667 1.111-1.111 0.444h-1.778q-0.444 0-0.889-0.444t-0.444-1.333z"></path>
</svg>
