<!-- Generated by IcoMoon.io -->
<svg version="1.1" xmlns="http://www.w3.org/2000/svg" width="32" height="32" viewBox="0 0 32 32">
<title>player_volumeMin_20__0</title>
<path fill="white" d="M23.556 10.222q-0.444-0.444-1.111-0.444t-1.111 0.444-0.444 1.111 0.444 1.111l0.444 0.889q0.444 0.889 0.444 2.667t-0.444 2.667l-0.444 0.889q-0.444 0.444-0.444 1.111t0.444 1.111 1.111 0.444 1.111-0.444l0.889-1.333q1.333-2.222 1.333-4.444t-1.333-4.444zM14.667 1.778q-1.778 0-2.667 0.889l-4.444 4.444q-0.444 0-0.889 0.444l-2.222 0.444q-1.333 0-2.222 0.667t-1.333 1.556q-0.889 2.667-0.889 5.778t0.889 5.778q0.444 0.889 1.333 1.556t2.222 0.667l2.222 0.444q0.444 0.444 0.889 0.444l4.444 4.444q0.889 0.889 2.222 0.889t2.444-0.667 1.556-1.556q0.889-4.444 0.889-12t-0.889-12q-0.444-0.889-1.556-1.556t-2-0.667zM14.222 4.889h0.889q0.889 4 0.889 11.111t-0.889 11.111h-0.889l-4.444-4.444q-0.889-0.889-2.667-1.333l-2.222-0.444q-0.889 0-0.889-0.444-0.889-1.778-0.889-4.444t0.889-4.444q0-0.444 0.889-0.444l2.222-0.444q1.778-0.444 2.667-1.333z"></path>
</svg>
