<!-- Generated by IcoMoon.io -->
<svg version="1.1" xmlns="http://www.w3.org/2000/svg" width="32" height="32" viewBox="0 0 32 32">
<title>pull_72__1</title>
<path d="M18.667 4.889q0.444-0.889 0.444-2t-0.889-2-2.222-0.889-2.222 0.889-0.889 2 0.444 2q-2.222 0.444-4 1.556t-2.889 3.111-1.111 4.222v6.222q0 1.778-1.778 3.111-0.889 0.889-1.333 1.556t-0.444 1.778 0.667 1.778 2 0.667h23.111q1.333 0 2-0.667t0.667-1.778-0.444-1.778-1.333-1.556q-1.778-1.333-1.778-3.111v-6.222q0-2.222-1.111-4.222t-2.889-3.111-4-1.556zM16.444 6.222q1.333 0 2.667 0.444t2.667 1.333q3.111 2.222 3.111 5.778v6.222q0 2.667 2.667 4.889l0.889 0.444v1.778h-24.889v-1.778l0.889-0.444q2.667-2.222 2.667-4.889v-6.222q0-3.556 3.111-5.778 1.333-0.889 2.667-1.333t2.667-0.444h0.889zM16 4.444q-0.444 0-0.889-0.444t-0.444-0.889 0.444-0.889 0.889-0.444 0.889 0.444 0.444 0.889-0.444 0.889-0.889 0.444z"></path>
</svg>
