<!-- Generated by IcoMoon.io -->
<svg fill='white' version="1.1" xmlns="http://www.w3.org/2000/svg" width="32" height="32" viewBox="0 0 32 32">
<title>call_16__0</title>
<path d="M7.111 4q-0.889 0-1.778 0.889v0q-0.444 0.444-0.889 1.333v0q-0.444 0.889-0.444 2.444t0.889 3.556 2.444 4.222 3.778 4.444 4.444 3.778 4.222 2.444 3.556 0.889 2.444-0.444v0q0.889-0.444 1.333-0.889l0.889-1.333v-0.889l-5.333-3.556-1.778 1.333q-0.889 0.889-2.222 0.889l-1.333-0.444q-0.889-0.444-2.222-1.333l-4.444-4.444-1.333-2.222-0.444-1.778q0-0.889 0.444-1.778l1.778-1.778-3.556-5.333h-0.444zM2.667 1.778q1.778-1.778 4.444-1.778 0.889 0 2 0.444t1.556 1.333l4 6.222q0.444 0.444 0.444 1.556t-0.444 2l-1.778 1.778 2.667 3.111 3.111 2.667 1.778-1.778q0.889-0.444 1.778-0.444t1.778 0.444l1.333 0.444 4.889 3.556q0.889 0.444 1.333 1.778v0q0.444 0.889 0.444 2t-0.444 2.222-1.556 2.222-2.889 1.778-4 0.667-4.889-1.111-5.333-2.889v0l-4.444-4.444q-2.667-2.222-4.444-4.889v0q-1.778-2.222-2.667-4.889v0q-1.333-2.667-1.333-4.889t0.667-4 2-3.111z"></path>
</svg>
