<!-- Generated by IcoMoon.io -->
<svg fill='white' version="1.1" xmlns="http://www.w3.org/2000/svg" width="16" height="16" viewBox="0 0 32 32">
<title>email_16__0</title>
<path d="M6.222 1.778h20q1.333 0 2.667 0.889t2.222 2.444 0.889 3.333v15.111q0 1.778-0.889 3.333t-2.222 2.222-2.667 0.667h-20q-1.778 0-3.111-0.667t-2.222-2.222-0.889-3.333v-15.111q0-1.778 0.889-3.333t2.222-2.222 3.111-0.667v-0.444zM4 12v8l4.889-4zM4.444 24.889q0 0.444 0.444 0.667t1.333 0.222h20q0.444 0 0.889-0.222t0.444-0.667l-7.556-6.667-1.778 1.333q-0.889 0.889-2.222 0.889t-2.222-0.889l-1.778-1.333zM28 20v-8l-4.889 3.556zM28 7.556q0-0.444-0.667-1.111t-1.111-0.667h-20q-0.889 0.444-1.556 0.889t-0.667 1.333l11.111 8.444h1.778z"></path>
</svg>
